<svg xmlns="http://www.w3.org/2000/svg" viewBox="0 0 100 100" width="16" height="16"><path fill="#fefdef" d="M80,77H20c-3.314,0-6-2.686-6-6V29c0-3.314,2.686-6,6-6h60c3.314,0,6,2.686,6,6v42	C86,74.314,83.314,77,80,77z"/><path fill="#f15b6c" d="M23,77h-3c-3.314,0-6-2.686-6-6V29h9V77z"/><path fill="#f15b6c" d="M77,77h3c3.314,0,6-2.686,6-6V29h-9V77z"/><path fill="#f15b6c" d="M82.09,24h-0.004L50,47.5L17.914,24H17.91c-1.883,0-3.41,1.527-3.41,3.41v1.554	c0,1.594,0.76,3.092,2.046,4.034L50,57.5l33.454-24.502c1.286-0.942,2.046-2.44,2.046-4.034V27.41C85.5,25.527,83.973,24,82.09,24z"/><path fill="#1f212b" d="M80,78H20c-3.859,0-7-3.14-7-7V29c0-3.86,3.141-7,7-7h60c3.859,0,7,3.14,7,7v42	C87,74.86,83.859,78,80,78z M20,24c-2.757,0-5,2.243-5,5v42c0,2.757,2.243,5,5,5h60c2.757,0,5-2.243,5-5V29c0-2.757-2.243-5-5-5H20z"/><path fill="#1f212b" d="M50,58c-0.104,0-0.207-0.032-0.296-0.097L16.25,33.401C14.842,32.37,14,30.711,14,28.964h1	c0,1.429,0.688,2.786,1.841,3.63L50,56.88l33.158-24.286C84.312,31.75,85,30.394,85,28.964h1c0,1.747-0.842,3.406-2.251,4.437	L50.296,57.903C50.207,57.968,50.104,58,50,58z"/><path fill="#1f212b" d="M22.5,74c-0.276,0-0.5-0.224-0.5-0.5v-33c0-0.276,0.224-0.5,0.5-0.5s0.5,0.224,0.5,0.5v33	C23,73.776,22.776,74,22.5,74z"/><path fill="#1f212b" d="M77.5,62c-0.276,0-0.5-0.224-0.5-0.5v-21c0-0.276,0.224-0.5,0.5-0.5s0.5,0.224,0.5,0.5v21	C78,61.776,77.776,62,77.5,62z"/><path fill="#1f212b" d="M77.5,70c-0.276,0-0.5-0.224-0.5-0.5v-5c0-0.276,0.224-0.5,0.5-0.5s0.5,0.224,0.5,0.5v5	C78,69.776,77.776,70,77.5,70z"/><path fill="#1f212b" d="M77.5,74c-0.276,0-0.5-0.224-0.5-0.5v-1c0-0.276,0.224-0.5,0.5-0.5s0.5,0.224,0.5,0.5v1	C78,73.776,77.776,74,77.5,74z"/><path fill="#1f212b" d="M74.5,30.056c-0.153,0-0.306-0.071-0.403-0.205c-0.163-0.223-0.115-0.536,0.108-0.699l2-1.464	c0.221-0.164,0.535-0.116,0.698,0.108c0.163,0.223,0.115,0.536-0.108,0.699l-2,1.464C74.706,30.025,74.603,30.056,74.5,30.056z"/><path fill="#1f212b" d="M68.5,34.451c-0.153,0-0.306-0.071-0.403-0.205c-0.163-0.223-0.115-0.536,0.107-0.699l4-2.93	c0.223-0.164,0.536-0.116,0.699,0.108c0.163,0.223,0.115,0.536-0.107,0.699l-4,2.93C68.706,34.419,68.603,34.451,68.5,34.451z"/><path fill="#1f212b" d="M50,48c-0.104,0-0.207-0.032-0.296-0.097l-32.428-23.75c-0.223-0.163-0.271-0.476-0.107-0.699	c0.163-0.224,0.477-0.271,0.699-0.108L50,46.88l16.089-11.784c0.224-0.164,0.536-0.116,0.699,0.108	c0.163,0.223,0.115,0.536-0.107,0.699l-16.385,12C50.207,47.968,50.104,48,50,48z"/></svg>